<svg width="26" height="26" viewBox="-2 4 26 26" xmlns="http://www.w3.org/2000/svg"><path fill="none" stroke="#FFF" stroke-linejoin="round" d="M22.4 12.4l-.6-1.2-3.6.2c-.4-.5-.9-1-1.4-1.4l.2-3.7c-.8-.4-1.7-.8-2.5-1.1l-2.3 2.5c-.7-.1-1.5-.1-2.3-.1L7.7 5.2c-.5.1-.9.3-1.3.4-.4.2-.9.4-1.3.7l.1 3.1c-.7.5-1.4 1.1-2 1.8L.3 11c-.5.8-.8 1.7-1.1 2.6l2 1.9c-.2 1-.2 2-.1 2.9l-2 1.8c.1.5.3.9.5 1.4s.4.9.6 1.3l2.8-.1c.6.8 1.3 1.5 2.1 2.1l-.2 2.8c.8.5 1.7.8 2.6 1.1l2-2.2c.9.1 1.8.1 2.7 0l2 2.3c.5-.1.9-.3 1.4-.5l1.2-.6-.1-3.3c.6-.5 1.1-1 1.6-1.6l3.4.2c.5-.8.8-1.6 1.1-2.5l-2.6-2.4c.1-.7.1-1.3 0-2l2.7-2.4c-.2-.5-.4-1-.5-1.4h0z"/><circle fill="none" stroke="#FFF" cx="11" cy="17" r="5.2"/></svg>